<?xml version="1.0" standalone="no"?>
<!DOCTYPE svg PUBLIC "-//W3C//DTD SVG 20010904//EN"
 "http://www.w3.org/TR/2001/REC-SVG-20010904/DTD/svg10.dtd">
<svg version="1.0" xmlns="http://www.w3.org/2000/svg"
 width="225.000000pt" height="225.000000pt" viewBox="0 0 225.000000 225.000000"
 preserveAspectRatio="xMidYMid meet">

<g transform="translate(0.000000,225.000000) scale(0.100000,-0.100000)"
fill="#000000" stroke="none">
<path d="M347 1783 c-4 -3 -7 -129 -7 -280 l0 -273 255 0 255 0 0 33 c0 19 -3
76 -7 127 -4 68 -9 87 -15 71 -4 -13 -5 -28 -1 -33 3 -7 1 -8 -5 -4 -11 7 -17
-6 -13 -27 1 -5 -2 -6 -7 -3 -12 7 -45 -52 -36 -66 4 -6 3 -8 -4 -4 -6 4 -22
-13 -38 -40 -45 -76 -39 -34 10 70 l45 96 -54 -47 c-30 -25 -52 -50 -49 -55 3
-5 1 -7 -4 -6 -6 2 -33 -14 -62 -35 -28 -21 -54 -36 -57 -33 -4 3 41 51 98
107 57 55 82 83 54 61 -27 -21 -67 -49 -87 -61 -21 -13 -38 -28 -38 -33 0 -6
-3 -8 -6 -5 -11 10 -45 -13 -38 -25 4 -7 3 -8 -4 -4 -6 4 -21 2 -32 -4 -43
-23 -17 8 40 48 33 24 60 47 60 53 0 6 -4 8 -8 5 -5 -3 -9 1 -9 8 0 7 6 13 13
13 7 0 13 -3 12 -6 -2 -21 7 -19 48 11 51 36 84 81 84 113 -1 11 -9 44 -19 73
-20 59 -13 67 19 20 21 -32 21 -32 16 -6 -3 14 -9 33 -12 42 -3 9 -2 16 4 16
13 0 43 -74 53 -135 7 -43 8 -40 4 25 -2 41 -7 85 -11 98 -4 12 -2 22 4 22 10
0 39 -98 45 -155 2 -16 5 18 6 78 l1 107 -26 0 c-14 0 -23 4 -19 10 3 6 15 10
26 10 10 0 19 7 19 15 0 13 -34 15 -248 15 -137 0 -252 -3 -255 -7z m36 -516
c4 3 7 4 7 1 0 -3 -8 -12 -17 -19 -10 -7 -15 -9 -11 -5 4 5 2 16 -5 25 -10 14
-10 14 4 4 9 -7 19 -10 22 -6z"/>
<path d="M870 1775 c0 -8 9 -15 20 -15 11 0 20 -4 20 -10 0 -5 -9 -10 -20 -10
-19 0 -20 -7 -20 -255 l0 -255 520 0 520 0 0 280 0 280 -520 0 c-456 0 -520
-2 -520 -15z m49 -112 c-5 -21 -8 -65 -7 -98 l1 -60 7 55 c4 30 17 75 29 100
20 41 21 42 16 13 -3 -18 -7 -48 -10 -65 l-5 -33 12 30 c21 48 38 75 49 75 5
0 2 -14 -6 -31 -9 -16 -19 -51 -22 -77 -7 -62 10 -83 150 -182 58 -41 102 -76
97 -78 -10 -4 -177 98 -221 135 -17 15 -38 41 -45 58 -9 21 -13 24 -14 11 0
-11 46 -66 112 -133 62 -62 108 -113 104 -113 -5 0 -57 40 -116 90 -120 99
-120 99 -49 -42 48 -95 33 -89 -33 12 -84 130 -91 151 -85 230 6 73 24 140 36
140 5 0 5 -17 0 -37z"/>
<path d="M941 1554 c0 -11 3 -14 6 -6 3 7 2 16 -1 19 -3 4 -6 -2 -5 -13z"/>
<path d="M1124 1046 c-146 -36 -229 -152 -228 -321 0 -129 52 -217 159 -273
66 -34 186 -42 269 -18 51 15 57 20 53 39 -3 12 -9 39 -13 60 -6 34 -9 38 -28
32 -11 -4 -53 -9 -92 -12 -87 -6 -134 12 -170 67 -47 71 -41 196 12 253 44 47
79 60 158 54 39 -3 81 -8 93 -12 19 -6 22 -2 34 50 15 66 13 68 -64 85 -61 13
-118 12 -183 -4z"/>
<path d="M342 822 c3 -221 4 -229 29 -277 15 -30 42 -62 68 -80 40 -28 48 -30
141 -30 93 0 101 2 142 30 30 21 52 48 73 90 l30 60 3 218 4 217 -75 0 -76 0
-3 -226 -3 -226 -28 -24 c-56 -48 -136 -20 -157 54 -5 20 -10 124 -10 230 l0
192 -71 0 -71 0 4 -228z"/>
<path d="M1488 1043 c-17 -4 -18 -27 -18 -307 l0 -303 78 -7 c142 -13 258 13
309 67 43 45 53 69 53 122 0 52 -16 89 -53 124 l-26 23 30 41 c56 77 31 175
-56 221 -34 18 -60 21 -170 23 -71 1 -138 -1 -147 -4z m238 -126 c22 -19 26
-29 20 -51 -8 -31 -61 -59 -105 -54 -24 3 -26 7 -29 52 -2 27 -1 55 2 62 9 24
81 17 112 -9z m4 -237 c23 -13 35 -50 26 -86 -8 -30 -63 -57 -110 -52 -31 3
-31 3 -34 67 -4 90 -1 95 54 87 24 -3 54 -10 64 -16z"/>
</g>
</svg>
